<?xml version="1.0" standalone="no"?>
<!DOCTYPE svg PUBLIC "-//W3C//DTD SVG 20010904//EN"
 "http://www.w3.org/TR/2001/REC-SVG-20010904/DTD/svg10.dtd">
<svg version="1.0" xmlns="http://www.w3.org/2000/svg"
 width="700.000000pt" height="700.000000pt" viewBox="0 0 700.000000 700.000000"
 preserveAspectRatio="xMidYMid meet">
<metadata>
Created by potrace 1.14, written by Peter Selinger 2001-2017
</metadata>
<g transform="translate(0.000000,700.000000) scale(0.100000,-0.100000)"
fill="#000000" stroke="none">
<path d="M3181 6515 l1 -470 311 1 c172 1 315 2 319 3 4 1 7 210 7 466 0 347
-4 465 -12 466 -7 1 -150 2 -320 3 l-308 1 2 -470z"/>
<path d="M1036 5964 l-224 -224 285 -285 285 -284 226 224 226 225 -287 284
-287 284 -224 -224z"/>
<path d="M5455 5903 l-285 -285 224 -224 225 -224 284 285 285 285 -112 112
c-61 61 -162 162 -223 224 l-113 113 -285 -286z"/>
<path d="M3379 5406 c-2 -2 -40 -6 -84 -10 -44 -3 -87 -8 -95 -10 -8 -1 -33
-6 -55 -11 -193 -38 -304 -76 -494 -168 -92 -45 -297 -173 -335 -209 -7 -7
-36 -32 -63 -55 -285 -241 -508 -602 -604 -976 -11 -44 -22 -93 -24 -107 -7
-43 -15 -89 -21 -122 -3 -18 -7 -109 -9 -203 -3 -156 1 -207 30 -394 3 -25 22
-99 41 -165 151 -525 513 -955 1001 -1192 103 -50 309 -126 373 -138 14 -2 59
-11 100 -20 123 -25 236 -34 400 -31 146 2 254 14 370 40 14 3 34 8 46 10 116
25 379 129 468 186 26 16 49 29 52 29 9 0 150 98 215 150 98 78 194 173 299
296 99 116 245 376 305 544 34 97 83 287 91 353 3 29 9 79 14 112 19 147 -1
481 -36 597 -3 10 -7 29 -10 44 -3 14 -23 80 -45 147 -182 555 -628 1007
-1185 1200 -102 36 -287 80 -379 92 -55 7 -360 16 -366 11z"/>
<path d="M2 3501 l3 -316 475 0 474 0 0 315 0 315 -477 1 -477 2 2 -317z"/>
<path d="M6049 3817 c-1 -1 -2 -145 -3 -319 l-1 -316 477 -1 478 -2 0 319 0
319 -475 1 c-261 1 -476 1 -476 -1z"/>
<path d="M1097 1547 l-284 -287 219 -220 c121 -121 224 -220 228 -220 5 0 531
523 567 563 1 2 -99 104 -222 227 l-224 224 -284 -287z"/>
<path d="M5385 1600 l-219 -219 285 -287 286 -286 209 209 c115 116 215 217
223 227 13 15 -14 45 -268 296 -155 154 -285 280 -289 280 -4 0 -106 -99 -227
-220z"/>
<path d="M3198 952 c-14 -3 -16 -54 -14 -470 l1 -467 317 0 317 0 0 467 c0
356 -3 468 -12 469 -28 3 -595 4 -609 1z"/>
</g>
</svg>
